# xmcd CD database file
#
# Track frame offsets:
#	150
#	16202
#	36072
#	55915
#	73557
#	92227
#	112912
#	129042
#	145965
#	166137
#
# Disc length: 2590 seconds
#
# Revision: 0
# Processed by: cddbd v1.5.1PL0 Copyright (c) Steve Scherf et al.
# Submitted via: CDex 1.51
#
DISCID=790a1c0a
DTITLE=折原みと - るり色プリンセス
DYEAR=1989
DGENRE=Anime
TTITLE0=るり色の天国
TTITLE1=ゴメン・ね！
TTITLE2=Graduation〜卒業〜
TTITLE3=Power of Love
TTITLE4=STAY
TTITLE5=夢の迷路（ラビリンス）
TTITLE6=い・つ・か・Someday
TTITLE7=Rockin' My Heart Tonight
TTITLE8=Wishing
TTITLE9=DREAM COMPANY
EXTD=YEAR: 1989
EXTT0=
EXTT1=
EXTT2=
EXTT3=
EXTT4=
EXTT5=
EXTT6=
EXTT7=
EXTT8=
EXTT9=
PLAYORDER=
